<svg width="1662" height="200" viewBox="0 0 1662 200" fill="none" xmlns="http://www.w3.org/2000/svg">
<g opacity="0.1">
<mask id="path-1-outside-1_296_2716" maskUnits="userSpaceOnUse" x="0" y="0" width="1662" height="200" fill="black">
<rect fill="white" width="1662" height="200"/>
<path d="M1.55824 1.593H113.17V159H83.9892V29.496H30.7392V159H1.55824V1.593ZM144.059 40.998H170.045V54.843C174.589 49.447 180.127 45.329 186.659 42.489C193.333 39.649 200.717 38.229 208.811 38.229C217.331 38.229 225.141 39.791 232.241 42.915C239.483 45.897 245.731 50.157 250.985 55.695C256.239 61.091 260.286 67.552 263.126 75.078C266.108 82.462 267.599 90.627 267.599 99.573C267.599 108.519 266.108 116.826 263.126 124.494C260.144 132.02 256.026 138.552 250.772 144.09C245.66 149.628 239.483 153.959 232.241 157.083C224.999 160.207 217.118 161.769 208.598 161.769C201.356 161.769 194.895 160.704 189.215 158.574C183.535 156.302 177.926 152.752 172.388 147.924V198.405H144.059V40.998ZM205.403 135.783C210.089 135.783 214.491 134.86 218.609 133.014C222.727 131.168 226.277 128.683 229.259 125.559C232.383 122.293 234.797 118.53 236.501 114.27C238.205 109.868 239.057 105.182 239.057 100.212C239.057 94.958 238.205 90.13 236.501 85.728C234.797 81.326 232.383 77.563 229.259 74.439C226.135 71.173 222.443 68.688 218.183 66.984C214.065 65.138 209.521 64.215 204.551 64.215C199.723 64.215 195.25 65.138 191.132 66.984C187.014 68.83 183.393 71.386 180.269 74.652C177.287 77.776 174.944 81.61 173.24 86.154C171.536 90.556 170.684 95.313 170.684 100.425C170.684 105.395 171.536 110.081 173.24 114.483C175.086 118.743 177.571 122.506 180.695 125.772C183.819 128.896 187.511 131.381 191.771 133.227C196.031 134.931 200.575 135.783 205.403 135.783ZM403.942 124.068C402.238 129.606 399.54 134.718 395.848 139.404C392.156 143.948 387.825 147.924 382.855 151.332C377.885 154.598 372.418 157.154 366.454 159C360.49 160.846 354.242 161.769 347.71 161.769C338.764 161.769 330.386 160.207 322.576 157.083C314.766 153.959 307.95 149.628 302.128 144.09C296.448 138.552 291.975 132.091 288.709 124.707C285.443 117.181 283.81 109.087 283.81 100.425C283.81 91.763 285.372 83.669 288.496 76.143C291.762 68.475 296.164 61.872 301.702 56.334C307.382 50.654 313.985 46.252 321.511 43.128C329.179 39.862 337.344 38.229 346.006 38.229C354.81 38.229 362.904 39.862 370.288 43.128C377.814 46.252 384.275 50.654 389.671 56.334C395.067 61.872 399.256 68.546 402.238 76.356C405.362 84.024 406.924 92.473 406.924 101.703C406.924 103.975 406.853 105.892 406.711 107.454C406.569 108.874 406.285 110.578 405.859 112.566H314.482C316.186 119.808 319.878 125.488 325.558 129.606C331.38 133.724 338.551 135.783 347.071 135.783C353.035 135.783 357.934 134.931 361.768 133.227C365.602 131.381 369.365 128.328 373.057 124.068H403.942ZM379.021 87.645C377.175 79.977 373.483 74.155 367.945 70.179C362.407 66.203 355.236 64.215 346.432 64.215C337.912 64.215 330.883 66.203 325.345 70.179C319.807 74.155 315.902 79.977 313.63 87.645H379.021ZM428.605 40.998H456.721V118.956L509.545 40.998H538.3V159H510.184V81.042L457.36 159H428.605V40.998ZM565.574 40.998H597.95L633.521 101.49L669.092 40.998H701.468V159H673.139V81.042L641.828 134.505H625.214L593.903 81.042V159H565.574V40.998ZM761.128 147.924L717.889 40.998H750.265L776.464 117.465L805.006 40.998H837.595L769.435 198.405H738.976L761.128 147.924ZM854.072 40.998H882.401V133.227H917.12V40.998H945.449V133.227H980.168V40.998H1008.5V133.227H1031.08V187.116H1010.63L1004.66 159H854.072V40.998ZM1164.29 124.068C1162.59 129.606 1159.89 134.718 1156.2 139.404C1152.51 143.948 1148.18 147.924 1143.21 151.332C1138.24 154.598 1132.77 157.154 1126.81 159C1120.84 160.846 1114.59 161.769 1108.06 161.769C1099.12 161.769 1090.74 160.207 1082.93 157.083C1075.12 153.959 1068.3 149.628 1062.48 144.09C1056.8 138.552 1052.33 132.091 1049.06 124.707C1045.79 117.181 1044.16 109.087 1044.16 100.425C1044.16 91.763 1045.72 83.669 1048.85 76.143C1052.11 68.475 1056.52 61.872 1062.05 56.334C1067.73 50.654 1074.34 46.252 1081.86 43.128C1089.53 39.862 1097.7 38.229 1106.36 38.229C1115.16 38.229 1123.26 39.862 1130.64 43.128C1138.17 46.252 1144.63 50.654 1150.02 56.334C1155.42 61.872 1159.61 68.546 1162.59 76.356C1165.71 84.024 1167.28 92.473 1167.28 101.703C1167.28 103.975 1167.2 105.892 1167.06 107.454C1166.92 108.874 1166.64 110.578 1166.21 112.566H1074.83C1076.54 119.808 1080.23 125.488 1085.91 129.606C1091.73 133.724 1098.9 135.783 1107.42 135.783C1113.39 135.783 1118.29 134.931 1122.12 133.227C1125.95 131.381 1129.72 128.328 1133.41 124.068H1164.29ZM1139.37 87.645C1137.53 79.977 1133.83 74.155 1128.3 70.179C1122.76 66.203 1115.59 64.215 1106.78 64.215C1098.26 64.215 1091.23 66.203 1085.7 70.179C1080.16 74.155 1076.25 79.977 1073.98 87.645H1139.37ZM1305.04 120.234C1300.07 133.582 1292.47 143.877 1282.25 151.119C1272.17 158.219 1260.24 161.769 1246.47 161.769C1237.8 161.769 1229.64 160.207 1221.97 157.083C1214.3 153.817 1207.56 149.415 1201.74 143.877C1196.06 138.197 1191.58 131.594 1188.32 124.068C1185.05 116.542 1183.42 108.519 1183.42 99.999C1183.42 91.337 1184.98 83.243 1188.1 75.717C1191.37 68.191 1195.77 61.659 1201.31 56.121C1206.99 50.583 1213.59 46.252 1221.12 43.128C1228.79 39.862 1236.95 38.229 1245.61 38.229C1259.81 38.229 1272.1 41.921 1282.46 49.305C1292.83 56.689 1300.36 67.055 1305.04 80.403H1273.09C1267.41 69.611 1258.25 64.215 1245.61 64.215C1240.64 64.215 1236.1 65.138 1231.98 66.984C1227.86 68.688 1224.31 71.102 1221.33 74.226C1218.35 77.35 1216.01 81.113 1214.3 85.515C1212.74 89.775 1211.96 94.532 1211.96 99.786C1211.96 104.898 1212.81 109.655 1214.52 114.057C1216.22 118.459 1218.63 122.293 1221.76 125.559C1224.88 128.683 1228.5 131.168 1232.62 133.014C1236.88 134.86 1241.43 135.783 1246.25 135.783C1252.22 135.783 1257.26 134.576 1261.38 132.162C1265.64 129.606 1269.54 125.63 1273.09 120.234H1305.04ZM1346.15 66.771H1318.67V40.998H1401.96V66.771H1374.48V159H1346.15V66.771ZM1421.5 40.998H1470.07C1484.12 40.998 1495.06 44.193 1502.87 50.583C1510.68 56.973 1514.58 65.848 1514.58 77.208C1514.58 81.468 1513.3 85.515 1510.75 89.349C1508.19 93.183 1504.86 95.952 1500.74 97.656C1506.13 99.644 1510.39 102.768 1513.52 107.028C1516.78 111.146 1518.42 115.761 1518.42 120.873C1518.42 126.411 1517.35 131.523 1515.22 136.209C1513.23 140.753 1510.39 144.729 1506.7 148.137C1503.15 151.545 1498.82 154.243 1493.71 156.231C1488.74 158.077 1483.34 159 1477.52 159H1421.5V40.998ZM1469.85 87.858C1475.53 87.858 1479.86 86.935 1482.85 85.089C1485.97 83.243 1487.53 80.616 1487.53 77.208C1487.53 73.942 1485.97 71.386 1482.85 69.54C1479.86 67.694 1475.53 66.771 1469.85 66.771H1449.83V87.858H1469.85ZM1475.6 133.227C1479.86 133.227 1483.27 132.091 1485.83 129.819C1488.53 127.547 1489.87 124.565 1489.87 120.873C1489.87 117.181 1488.53 114.199 1485.83 111.927C1483.27 109.655 1479.86 108.519 1475.6 108.519H1449.83V133.227H1475.6ZM1535.46 100.425C1535.46 91.479 1536.95 83.243 1539.93 75.717C1542.91 68.049 1547.03 61.446 1552.29 55.908C1557.68 50.37 1564.07 46.039 1571.46 42.915C1578.84 39.791 1586.86 38.229 1595.53 38.229C1604.05 38.229 1611.36 39.72 1617.46 42.702C1623.57 45.542 1629.11 50.228 1634.08 56.76V40.998H1660.06V159H1634.08V143.664C1628.4 150.196 1622.51 154.882 1616.4 157.722C1610.44 160.42 1603.26 161.769 1594.89 161.769C1586.22 161.769 1578.27 160.278 1571.03 157.296C1563.79 154.172 1557.54 149.912 1552.29 144.516C1547.03 138.978 1542.91 132.517 1539.93 125.133C1536.95 117.607 1535.46 109.371 1535.46 100.425ZM1564 101.064C1564 106.176 1564.85 110.862 1566.56 115.122C1568.26 119.382 1570.6 123.074 1573.59 126.198C1576.71 129.18 1580.4 131.523 1584.66 133.227C1589.06 134.931 1593.82 135.783 1598.93 135.783C1604.05 135.783 1608.66 134.931 1612.78 133.227C1617.04 131.523 1620.66 129.109 1623.64 125.985C1626.77 122.861 1629.11 119.169 1630.67 114.909C1632.37 110.507 1633.23 105.679 1633.23 100.425C1633.23 95.029 1632.37 90.13 1630.67 85.728C1628.97 81.326 1626.55 77.563 1623.43 74.439C1620.3 71.173 1616.54 68.688 1612.14 66.984C1607.88 65.138 1603.19 64.215 1598.08 64.215C1593.11 64.215 1588.5 65.138 1584.24 66.984C1580.12 68.83 1576.57 71.386 1573.59 74.652C1570.6 77.918 1568.26 81.823 1566.56 86.367C1564.85 90.769 1564 95.668 1564 101.064Z"/>
</mask>
<path d="M1.55824 1.593V0.592995H0.558242V1.593H1.55824ZM113.17 1.593H114.17V0.592995H113.17V1.593ZM113.17 159V160H114.17V159H113.17ZM83.9893 159H82.9893V160H83.9893V159ZM83.9893 29.496H84.9893V28.496H83.9893V29.496ZM30.7392 29.496V28.496H29.7392V29.496H30.7392ZM30.7392 159V160H31.7392V159H30.7392ZM1.55824 159H0.558242V160H1.55824V159ZM1.55824 2.593H113.17V0.592995H1.55824V2.593ZM112.17 1.593V159H114.17V1.593H112.17ZM113.17 158H83.9893V160H113.17V158ZM84.9893 159V29.496H82.9893V159H84.9893ZM83.9893 28.496H30.7392V30.496H83.9893V28.496ZM29.7392 29.496V159H31.7392V29.496H29.7392ZM30.7392 158H1.55824V160H30.7392V158ZM2.55824 159V1.593H0.558242V159H2.55824ZM144.059 40.998V39.998H143.059V40.998H144.059ZM170.045 40.998H171.045V39.998H170.045V40.998ZM170.045 54.843H169.045V57.583L170.809 55.4871L170.045 54.843ZM186.659 42.489L186.267 41.5688L186.26 41.5719L186.659 42.489ZM232.241 42.915L231.838 43.8303L231.849 43.8351L231.86 43.8397L232.241 42.915ZM250.985 55.695L250.259 56.3833L250.268 56.3926L250.985 55.695ZM263.126 75.078L262.19 75.4311L262.194 75.4418L262.198 75.4525L263.126 75.078ZM263.126 124.494L264.055 124.862L264.058 124.856L263.126 124.494ZM250.772 144.09L250.046 143.402L250.037 143.412L250.772 144.09ZM232.241 157.083L231.844 156.165L232.241 157.083ZM189.215 158.574L188.843 159.502L188.853 159.507L188.863 159.51L189.215 158.574ZM172.388 147.924L173.045 147.17L171.388 145.726V147.924H172.388ZM172.388 198.405V199.405H173.388V198.405H172.388ZM144.059 198.405H143.059V199.405H144.059V198.405ZM218.609 133.014L218.2 132.101L218.609 133.014ZM229.259 125.559L228.536 124.868L228.535 124.869L229.259 125.559ZM236.501 114.27L237.429 114.641L237.433 114.631L236.501 114.27ZM236.501 85.728L237.433 85.367L236.501 85.728ZM229.259 74.439L228.536 75.1302L228.544 75.1382L228.551 75.1461L229.259 74.439ZM218.183 66.984L217.774 67.8965L217.792 67.9049L217.811 67.9125L218.183 66.984ZM191.132 66.984L191.541 67.8965L191.132 66.984ZM180.269 74.652L179.546 73.9608L179.545 73.9615L180.269 74.652ZM173.24 86.154L174.172 86.515L174.176 86.5051L173.24 86.154ZM173.24 114.483L172.307 114.844L172.314 114.862L172.322 114.881L173.24 114.483ZM180.695 125.772L179.972 126.463L179.98 126.471L179.987 126.479L180.695 125.772ZM191.771 133.227L191.373 134.145L191.386 134.15L191.399 134.155L191.771 133.227ZM144.059 41.998H170.045V39.998H144.059V41.998ZM169.045 40.998V54.843H171.045V40.998H169.045ZM170.809 55.4871C175.253 50.2103 180.665 46.1852 187.057 43.4061L186.26 41.5719C179.588 44.4728 173.924 48.6837 169.28 54.1989L170.809 55.4871ZM187.05 43.4091C193.587 40.6276 200.836 39.229 208.811 39.229V37.229C200.598 37.229 193.078 38.6704 186.267 41.5688L187.05 43.4091ZM208.811 39.229C217.206 39.229 224.877 40.7674 231.838 43.8303L232.643 41.9997C225.404 38.8146 217.455 37.229 208.811 37.229V39.229ZM231.86 43.8397C238.975 46.7695 245.105 50.9502 250.259 56.3833L251.71 55.0067C246.357 49.3638 239.99 45.0245 232.621 41.9903L231.86 43.8397ZM250.268 56.3926C255.42 61.6835 259.395 68.0249 262.19 75.4311L264.061 74.7249C261.176 67.0791 257.057 60.4985 251.701 54.9974L250.268 56.3926ZM262.198 75.4525C265.127 82.7037 266.599 90.7395 266.599 99.573H268.599C268.599 90.5144 267.088 82.2203 264.053 74.7035L262.198 75.4525ZM266.599 99.573C266.599 108.406 265.127 116.589 262.194 124.132L264.058 124.856C267.088 117.063 268.599 108.632 268.599 99.573H266.599ZM262.196 124.126C259.258 131.54 255.207 137.962 250.046 143.402L251.497 144.778C256.844 139.142 261.029 132.5 264.055 124.862L262.196 124.126ZM250.037 143.412C245.024 148.842 238.964 153.094 231.844 156.165L232.637 158.001C240.001 154.824 246.295 150.414 251.506 144.768L250.037 143.412ZM231.844 156.165C224.737 159.231 216.992 160.769 208.598 160.769V162.769C217.243 162.769 225.26 161.183 232.637 158.001L231.844 156.165ZM208.598 160.769C201.453 160.769 195.114 159.718 189.566 157.638L188.863 159.51C194.675 161.69 201.258 162.769 208.598 162.769V160.769ZM189.586 157.646C184.029 155.423 178.514 151.939 173.045 147.17L171.73 148.678C177.337 153.565 183.04 157.181 188.843 159.502L189.586 157.646ZM171.388 147.924V198.405H173.388V147.924H171.388ZM172.388 197.405H144.059V199.405H172.388V197.405ZM145.059 198.405V40.998H143.059V198.405H145.059ZM205.403 136.783C210.224 136.783 214.766 135.832 219.018 133.927L218.2 132.101C214.215 133.888 209.953 134.783 205.403 134.783V136.783ZM219.018 133.927C223.248 132.03 226.907 129.471 229.982 126.249L228.535 124.869C225.647 127.895 222.205 130.306 218.2 132.101L219.018 133.927ZM229.981 126.25C233.195 122.89 235.678 119.018 237.429 114.641L235.572 113.899C233.915 118.042 231.57 121.696 228.536 124.868L229.981 126.25ZM237.433 114.631C239.184 110.108 240.057 105.299 240.057 100.212H238.057C238.057 105.065 237.225 109.628 235.568 113.909L237.433 114.631ZM240.057 100.212C240.057 94.8484 239.186 89.8964 237.433 85.367L235.568 86.089C237.223 90.3635 238.057 95.0675 238.057 100.212H240.057ZM237.433 85.367C235.682 80.8442 233.195 76.9609 229.966 73.7319L228.551 75.1461C231.57 78.1651 233.911 81.8078 235.568 86.089L237.433 85.367ZM229.981 73.7478C226.757 70.3769 222.945 67.8118 218.554 66.0555L217.811 67.9125C221.941 69.5642 225.512 71.9691 228.536 75.1302L229.981 73.7478ZM218.592 66.0715C214.332 64.1622 209.647 63.215 204.551 63.215V65.215C209.394 65.215 213.797 66.1138 217.774 67.8965L218.592 66.0715ZM204.551 63.215C199.592 63.215 194.978 64.1639 190.723 66.0715L191.541 67.8965C195.521 66.1121 199.854 65.215 204.551 65.215V63.215ZM190.723 66.0715C186.486 67.9704 182.759 70.6016 179.546 73.9608L180.991 75.3432C184.026 72.1704 187.541 69.6896 191.541 67.8965L190.723 66.0715ZM179.545 73.9615C176.459 77.1945 174.049 81.1482 172.303 85.8029L174.176 86.5051C175.838 82.0718 178.114 78.3575 180.992 75.3425L179.545 73.9615ZM172.307 85.793C170.555 90.3194 169.684 95.1998 169.684 100.425H171.684C171.684 95.4262 172.516 90.7926 174.172 86.515L172.307 85.793ZM169.684 100.425C169.684 105.512 170.556 110.321 172.307 114.844L174.172 114.122C172.515 109.841 171.684 105.278 171.684 100.425H169.684ZM172.322 114.881C174.214 119.246 176.764 123.109 179.972 126.463L181.417 125.081C178.377 121.903 175.957 118.24 174.157 114.085L172.322 114.881ZM179.987 126.479C183.205 129.697 187.003 132.251 191.373 134.145L192.168 132.309C188.018 130.511 184.432 128.095 181.402 125.065L179.987 126.479ZM191.399 134.155C195.783 135.909 200.454 136.783 205.403 136.783V134.783C200.695 134.783 196.278 133.953 192.142 132.299L191.399 134.155ZM403.942 124.068L404.898 124.362L405.296 123.068H403.942V124.068ZM395.848 139.404L396.624 140.035L396.629 140.029L396.633 140.023L395.848 139.404ZM382.855 151.332L383.404 152.168L383.412 152.162L383.42 152.157L382.855 151.332ZM366.454 159L366.158 158.045L366.454 159ZM302.128 144.09L301.43 144.806L301.439 144.815L302.128 144.09ZM288.709 124.707L287.792 125.105L287.794 125.112L288.709 124.707ZM288.496 76.143L287.576 75.7511L287.572 75.7596L288.496 76.143ZM301.702 56.334L300.995 55.6269L301.702 56.334ZM321.511 43.128L321.894 44.0516L321.903 44.048L321.511 43.128ZM370.288 43.128L369.883 44.0425L369.894 44.0472L369.904 44.0516L370.288 43.128ZM389.671 56.334L388.946 57.0228L388.955 57.0319L389.671 56.334ZM402.238 76.356L401.304 76.7127L401.308 76.723L401.312 76.7333L402.238 76.356ZM406.711 107.454L407.706 107.554L407.707 107.545L406.711 107.454ZM405.859 112.566V113.566H406.667L406.837 112.776L405.859 112.566ZM314.482 112.566V111.566H313.219L313.508 112.795L314.482 112.566ZM325.558 129.606L324.971 130.416L324.98 130.422L325.558 129.606ZM361.768 133.227L362.174 134.141L362.188 134.135L362.202 134.128L361.768 133.227ZM373.057 124.068V123.068H372.6L372.301 123.413L373.057 124.068ZM379.021 87.645V88.645H380.29L379.993 87.4109L379.021 87.645ZM325.345 70.179L324.762 69.3667L325.345 70.179ZM313.63 87.645L312.671 87.3609L312.291 88.645H313.63V87.645ZM402.986 123.774C401.319 129.191 398.68 134.193 395.062 138.785L396.633 140.023C400.399 135.243 403.156 130.021 404.898 124.362L402.986 123.774ZM395.072 138.773C391.442 143.241 387.183 147.152 382.289 150.507L383.42 152.157C388.467 148.696 392.87 144.655 396.624 140.035L395.072 138.773ZM382.306 150.496C377.418 153.708 372.037 156.225 366.158 158.045L366.75 159.955C372.799 158.083 378.352 155.488 383.404 152.168L382.306 150.496ZM366.158 158.045C360.294 159.86 354.146 160.769 347.71 160.769V162.769C354.337 162.769 360.685 161.832 366.75 159.955L366.158 158.045ZM347.71 160.769C338.883 160.769 330.632 159.228 322.947 156.155L322.204 158.011C330.14 161.186 338.645 162.769 347.71 162.769V160.769ZM322.947 156.155C315.25 153.075 308.543 148.812 302.817 143.365L301.439 144.815C307.357 150.444 314.282 154.843 322.204 158.011L322.947 156.155ZM302.826 143.374C297.239 137.927 292.839 131.572 289.623 124.302L287.794 125.112C291.111 132.61 295.657 139.177 301.43 144.806L302.826 143.374ZM289.626 124.309C286.418 116.915 284.81 108.958 284.81 100.425H282.81C282.81 109.216 284.468 117.447 287.792 125.105L289.626 124.309ZM284.81 100.425C284.81 91.8862 286.349 83.9233 289.419 76.5264L287.572 75.7596C284.395 83.4147 282.81 91.6398 282.81 100.425H284.81ZM289.416 76.5349C292.635 68.977 296.967 62.4829 302.409 57.0411L300.995 55.6269C295.361 61.2611 290.889 67.973 287.576 75.7511L289.416 76.5349ZM302.409 57.0411C307.995 51.4551 314.487 47.1261 321.894 44.0516L321.127 42.2044C313.482 45.3779 306.769 49.8528 300.995 55.6269L302.409 57.0411ZM321.903 44.048C329.442 40.8369 337.473 39.229 346.006 39.229V37.229C337.215 37.229 328.916 38.8871 321.119 42.208L321.903 44.048ZM346.006 39.229C354.683 39.229 362.638 40.8378 369.883 44.0425L370.692 42.2135C363.17 38.8862 354.936 37.229 346.006 37.229V39.229ZM369.904 44.0516C377.307 47.1242 383.65 51.4481 388.946 57.0227L390.396 55.6452C384.9 49.8599 378.321 45.3798 370.671 42.2044L369.904 44.0516ZM388.955 57.0319C394.248 62.4645 398.366 69.0196 401.304 76.7127L403.172 75.9993C400.145 68.0724 395.886 61.2795 390.387 55.6361L388.955 57.0319ZM401.312 76.7333C404.382 84.2685 405.924 92.5875 405.924 101.703H407.924C407.924 92.3585 406.342 83.7795 403.164 75.9787L401.312 76.7333ZM405.924 101.703C405.924 103.957 405.853 105.842 405.715 107.363L407.707 107.545C407.852 105.942 407.924 103.993 407.924 101.703H405.924ZM405.716 107.354C405.579 108.726 405.302 110.391 404.881 112.356L406.837 112.776C407.267 110.765 407.559 109.022 407.706 107.553L405.716 107.354ZM405.859 111.566H314.482V113.566H405.859V111.566ZM313.508 112.795C315.264 120.255 319.084 126.148 324.971 130.416L326.145 128.796C320.672 124.828 317.108 119.361 315.455 112.337L313.508 112.795ZM324.98 130.422C331.002 134.682 338.385 136.783 347.071 136.783V134.783C338.716 134.783 331.758 132.766 326.135 128.79L324.98 130.422ZM347.071 136.783C353.12 136.783 358.17 135.92 362.174 134.141L361.362 132.313C357.698 133.942 352.95 134.783 347.071 134.783V136.783ZM362.202 134.128C366.192 132.207 370.059 129.054 373.813 124.723L372.301 123.413C368.671 127.602 365.012 130.555 361.334 132.326L362.202 134.128ZM373.057 125.068H403.942V123.068H373.057V125.068ZM379.993 87.4109C378.1 79.5485 374.291 73.5042 368.528 69.3667L367.362 70.9913C372.675 74.8058 376.249 80.4055 378.049 87.8791L379.993 87.4109ZM368.528 69.3667C362.777 65.2374 355.384 63.215 346.432 63.215V65.215C355.088 65.215 362.037 67.1686 367.362 70.9913L368.528 69.3667ZM346.432 63.215C337.755 63.215 330.508 65.2411 324.762 69.3667L325.928 70.9913C331.258 67.1649 338.068 65.215 346.432 65.215V63.215ZM324.762 69.3667C319.013 73.4937 314.995 79.5183 312.671 87.3609L314.589 87.9291C316.809 80.4357 320.6 74.8163 325.928 70.9913L324.762 69.3667ZM313.63 88.645H379.021V86.645H313.63V88.645ZM428.605 40.998V39.998H427.605V40.998H428.605ZM456.721 40.998H457.721V39.998H456.721V40.998ZM456.721 118.956H455.721V122.215L457.549 119.517L456.721 118.956ZM509.545 40.998V39.998H509.015L508.717 40.437L509.545 40.998ZM538.3 40.998H539.3V39.998H538.3V40.998ZM538.3 159V160H539.3V159H538.3ZM510.184 159H509.184V160H510.184V159ZM510.184 81.042H511.184V77.7835L509.356 80.481L510.184 81.042ZM457.36 159V160H457.89L458.188 159.561L457.36 159ZM428.605 159H427.605V160H428.605V159ZM428.605 41.998H456.721V39.998H428.605V41.998ZM455.721 40.998V118.956H457.721V40.998H455.721ZM457.549 119.517L510.373 41.5589L508.717 40.437L455.893 118.395L457.549 119.517ZM509.545 41.998H538.3V39.998H509.545V41.998ZM537.3 40.998V159H539.3V40.998H537.3ZM538.3 158H510.184V160H538.3V158ZM511.184 159V81.042H509.184V159H511.184ZM509.356 80.481L456.532 158.439L458.188 159.561L511.012 81.6029L509.356 80.481ZM457.36 158H428.605V160H457.36V158ZM429.605 159V40.998H427.605V159H429.605ZM565.574 40.998V39.998H564.574V40.998H565.574ZM597.95 40.998L598.812 40.4911L598.522 39.998H597.95V40.998ZM633.521 101.49L632.659 101.997L633.521 103.463L634.383 101.997L633.521 101.49ZM669.092 40.998V39.998H668.52L668.23 40.4911L669.092 40.998ZM701.468 40.998H702.468V39.998H701.468V40.998ZM701.468 159V160H702.468V159H701.468ZM673.139 159H672.139V160H673.139V159ZM673.139 81.042H674.139V77.3558L672.276 80.5366L673.139 81.042ZM641.828 134.505V135.505H642.401L642.691 135.01L641.828 134.505ZM625.214 134.505L624.351 135.01L624.641 135.505H625.214V134.505ZM593.903 81.042L594.766 80.5366L592.903 77.3558V81.042H593.903ZM593.903 159V160H594.903V159H593.903ZM565.574 159H564.574V160H565.574V159ZM565.574 41.998H597.95V39.998H565.574V41.998ZM597.088 41.5049L632.659 101.997L634.383 100.983L598.812 40.4911L597.088 41.5049ZM634.383 101.997L669.954 41.5049L668.23 40.4911L632.659 100.983L634.383 101.997ZM669.092 41.998H701.468V39.998H669.092V41.998ZM700.468 40.998V159H702.468V40.998H700.468ZM701.468 158H673.139V160H701.468V158ZM674.139 159V81.042H672.139V159H674.139ZM672.276 80.5366L640.965 134L642.691 135.01L674.002 81.5474L672.276 80.5366ZM641.828 133.505H625.214V135.505H641.828V133.505ZM626.077 134L594.766 80.5366L593.04 81.5474L624.351 135.01L626.077 134ZM592.903 81.042V159H594.903V81.042H592.903ZM593.903 158H565.574V160H593.903V158ZM566.574 159V40.998H564.574V159H566.574ZM761.128 147.924L762.044 148.326L762.213 147.94L762.055 147.549L761.128 147.924ZM717.889 40.998V39.998H716.406L716.962 41.3729L717.889 40.998ZM750.265 40.998L751.211 40.6739L750.979 39.998H750.265V40.998ZM776.464 117.465L775.518 117.789L776.424 120.433L777.401 117.815L776.464 117.465ZM805.006 40.998V39.998H804.312L804.069 40.6483L805.006 40.998ZM837.595 40.998L838.513 41.3954L839.118 39.998H837.595V40.998ZM769.435 198.405V199.405H770.092L770.353 198.802L769.435 198.405ZM738.976 198.405L738.06 198.003L737.445 199.405H738.976V198.405ZM762.055 147.549L718.816 40.6231L716.962 41.3729L760.201 148.299L762.055 147.549ZM717.889 41.998H750.265V39.998H717.889V41.998ZM749.319 41.3221L775.518 117.789L777.41 117.141L751.211 40.6739L749.319 41.3221ZM777.401 117.815L805.943 41.3477L804.069 40.6483L775.527 117.115L777.401 117.815ZM805.006 41.998H837.595V39.998H805.006V41.998ZM836.677 40.6006L768.517 198.008L770.353 198.802L838.513 41.3954L836.677 40.6006ZM769.435 197.405H738.976V199.405H769.435V197.405ZM739.892 198.807L762.044 148.326L760.212 147.522L738.06 198.003L739.892 198.807ZM854.072 40.998V39.998H853.072V40.998H854.072ZM882.401 40.998H883.401V39.998H882.401V40.998ZM882.401 133.227H881.401V134.227H882.401V133.227ZM917.12 133.227V134.227H918.12V133.227H917.12ZM917.12 40.998V39.998H916.12V40.998H917.12ZM945.449 40.998H946.449V39.998H945.449V40.998ZM945.449 133.227H944.449V134.227H945.449V133.227ZM980.168 133.227V134.227H981.168V133.227H980.168ZM980.168 40.998V39.998H979.168V40.998H980.168ZM1008.5 40.998H1009.5V39.998H1008.5V40.998ZM1008.5 133.227H1007.5V134.227H1008.5V133.227ZM1031.08 133.227H1032.08V132.227H1031.08V133.227ZM1031.08 187.116V188.116H1032.08V187.116H1031.08ZM1010.63 187.116L1009.65 187.324L1009.82 188.116H1010.63V187.116ZM1004.66 159L1005.64 158.792L1005.47 158H1004.66V159ZM854.072 159H853.072V160H854.072V159ZM854.072 41.998H882.401V39.998H854.072V41.998ZM881.401 40.998V133.227H883.401V40.998H881.401ZM882.401 134.227H917.12V132.227H882.401V134.227ZM918.12 133.227V40.998H916.12V133.227H918.12ZM917.12 41.998H945.449V39.998H917.12V41.998ZM944.449 40.998V133.227H946.449V40.998H944.449ZM945.449 134.227H980.168V132.227H945.449V134.227ZM981.168 133.227V40.998H979.168V133.227H981.168ZM980.168 41.998H1008.5V39.998H980.168V41.998ZM1007.5 40.998V133.227H1009.5V40.998H1007.5ZM1008.5 134.227H1031.08V132.227H1008.5V134.227ZM1030.08 133.227V187.116H1032.08V133.227H1030.08ZM1031.08 186.116H1010.63V188.116H1031.08V186.116ZM1011.61 186.908L1005.64 158.792L1003.69 159.208L1009.65 187.324L1011.61 186.908ZM1004.66 158H854.072V160H1004.66V158ZM855.072 159V40.998H853.072V159H855.072ZM1164.29 124.068L1165.25 124.362L1165.65 123.068H1164.29V124.068ZM1156.2 139.404L1156.98 140.035L1156.98 140.029L1156.98 140.023L1156.2 139.404ZM1143.21 151.332L1143.76 152.168L1143.76 152.162L1143.77 152.157L1143.21 151.332ZM1126.81 159L1126.51 158.045L1126.81 159ZM1062.48 144.09L1061.78 144.806L1061.79 144.815L1062.48 144.09ZM1049.06 124.707L1048.14 125.105L1048.15 125.112L1049.06 124.707ZM1048.85 76.143L1047.93 75.7511L1047.92 75.7596L1048.85 76.143ZM1062.05 56.334L1061.35 55.6269L1062.05 56.334ZM1081.86 43.128L1082.25 44.0516L1082.25 44.048L1081.86 43.128ZM1130.64 43.128L1130.23 44.0425L1130.25 44.0472L1130.26 44.0516L1130.64 43.128ZM1150.02 56.334L1149.3 57.0228L1149.31 57.0319L1150.02 56.334ZM1162.59 76.356L1161.66 76.7127L1161.66 76.723L1161.66 76.7333L1162.59 76.356ZM1167.06 107.454L1168.06 107.554L1168.06 107.545L1167.06 107.454ZM1166.21 112.566V113.566H1167.02L1167.19 112.776L1166.21 112.566ZM1074.83 112.566V111.566H1073.57L1073.86 112.795L1074.83 112.566ZM1085.91 129.606L1085.32 130.416L1085.33 130.422L1085.91 129.606ZM1122.12 133.227L1122.53 134.141L1122.54 134.135L1122.55 134.128L1122.12 133.227ZM1133.41 124.068V123.068H1132.95L1132.65 123.413L1133.41 124.068ZM1139.37 87.645V88.645H1140.64L1140.34 87.4109L1139.37 87.645ZM1085.7 70.179L1085.11 69.3667L1085.7 70.179ZM1073.98 87.645L1073.02 87.3609L1072.64 88.645H1073.98V87.645ZM1163.34 123.774C1161.67 129.191 1159.03 134.193 1155.41 138.785L1156.98 140.023C1160.75 135.243 1163.51 130.021 1165.25 124.362L1163.34 123.774ZM1155.42 138.773C1151.79 143.241 1147.53 147.152 1142.64 150.507L1143.77 152.157C1148.82 148.696 1153.22 144.655 1156.98 140.035L1155.42 138.773ZM1142.66 150.496C1137.77 153.708 1132.39 156.225 1126.51 158.045L1127.1 159.955C1133.15 158.083 1138.7 155.488 1143.76 152.168L1142.66 150.496ZM1126.51 158.045C1120.65 159.86 1114.5 160.769 1108.06 160.769V162.769C1114.69 162.769 1121.04 161.832 1127.1 159.955L1126.51 158.045ZM1108.06 160.769C1099.23 160.769 1090.98 159.228 1083.3 156.155L1082.56 158.011C1090.49 161.186 1099 162.769 1108.06 162.769V160.769ZM1083.3 156.155C1075.6 153.075 1068.89 148.812 1063.17 143.365L1061.79 144.815C1067.71 150.444 1074.63 154.843 1082.56 158.011L1083.3 156.155ZM1063.18 143.374C1057.59 137.927 1053.19 131.572 1049.98 124.302L1048.15 125.112C1051.46 132.61 1056.01 139.177 1061.78 144.806L1063.18 143.374ZM1049.98 124.309C1046.77 116.915 1045.16 108.958 1045.16 100.425H1043.16C1043.16 109.216 1044.82 117.447 1048.14 125.105L1049.98 124.309ZM1045.16 100.425C1045.16 91.8862 1046.7 83.9233 1049.77 76.5264L1047.92 75.7596C1044.75 83.4147 1043.16 91.6398 1043.16 100.425H1045.16ZM1049.77 76.5349C1052.99 68.977 1057.32 62.4829 1062.76 57.0411L1061.35 55.6269C1055.71 61.2611 1051.24 67.973 1047.93 75.7511L1049.77 76.5349ZM1062.76 57.0411C1068.35 51.4551 1074.84 47.1261 1082.25 44.0516L1081.48 42.2044C1073.83 45.3779 1067.12 49.8528 1061.35 55.6269L1062.76 57.0411ZM1082.25 44.048C1089.79 40.8369 1097.82 39.229 1106.36 39.229V37.229C1097.57 37.229 1089.27 38.8871 1081.47 42.208L1082.25 44.048ZM1106.36 39.229C1115.03 39.229 1122.99 40.8378 1130.23 44.0425L1131.04 42.2135C1123.52 38.8862 1115.29 37.229 1106.36 37.229V39.229ZM1130.26 44.0516C1137.66 47.1242 1144 51.4481 1149.3 57.0227L1150.75 55.6452C1145.25 49.8599 1138.67 45.3798 1131.02 42.2044L1130.26 44.0516ZM1149.31 57.0319C1154.6 62.4645 1158.72 69.0196 1161.66 76.7127L1163.52 75.9993C1160.5 68.0724 1156.24 61.2795 1150.74 55.6361L1149.31 57.0319ZM1161.66 76.7333C1164.73 84.2685 1166.28 92.5875 1166.28 101.703H1168.28C1168.28 92.3585 1166.69 83.7795 1163.52 75.9787L1161.66 76.7333ZM1166.28 101.703C1166.28 103.957 1166.2 105.842 1166.07 107.363L1168.06 107.545C1168.2 105.942 1168.28 103.993 1168.28 101.703H1166.28ZM1166.07 107.354C1165.93 108.726 1165.65 110.391 1165.23 112.356L1167.19 112.776C1167.62 110.765 1167.91 109.022 1168.06 107.553L1166.07 107.354ZM1166.21 111.566H1074.83V113.566H1166.21V111.566ZM1073.86 112.795C1075.62 120.255 1079.44 126.148 1085.32 130.416L1086.5 128.796C1081.02 124.828 1077.46 119.361 1075.81 112.337L1073.86 112.795ZM1085.33 130.422C1091.35 134.682 1098.74 136.783 1107.42 136.783V134.783C1099.07 134.783 1092.11 132.766 1086.49 128.79L1085.33 130.422ZM1107.42 136.783C1113.47 136.783 1118.52 135.92 1122.53 134.141L1121.71 132.313C1118.05 133.942 1113.3 134.783 1107.42 134.783V136.783ZM1122.55 134.128C1126.54 132.207 1130.41 129.054 1134.16 124.723L1132.65 123.413C1129.02 127.602 1125.36 130.555 1121.69 132.326L1122.55 134.128ZM1133.41 125.068H1164.29V123.068H1133.41V125.068ZM1140.34 87.4109C1138.45 79.5485 1134.64 73.5042 1128.88 69.3667L1127.71 70.9913C1133.03 74.8058 1136.6 80.4055 1138.4 87.8791L1140.34 87.4109ZM1128.88 69.3667C1123.13 65.2374 1115.74 63.215 1106.78 63.215V65.215C1115.44 65.215 1122.39 67.1686 1127.71 70.9913L1128.88 69.3667ZM1106.78 63.215C1098.11 63.215 1090.86 65.2411 1085.11 69.3667L1086.28 70.9913C1091.61 67.1649 1098.42 65.215 1106.78 65.215V63.215ZM1085.11 69.3667C1079.36 73.4937 1075.35 79.5183 1073.02 87.3609L1074.94 87.9291C1077.16 80.4357 1080.95 74.8163 1086.28 70.9913L1085.11 69.3667ZM1073.98 88.645H1139.37V86.645H1073.98V88.645ZM1305.04 120.234L1305.98 120.583L1306.48 119.234H1305.04V120.234ZM1282.25 151.119L1282.83 151.937L1282.83 151.935L1282.25 151.119ZM1221.97 157.083L1221.58 158.003L1221.59 158.006L1221.59 158.009L1221.97 157.083ZM1201.74 143.877L1201.03 144.584L1201.04 144.593L1201.05 144.602L1201.74 143.877ZM1188.32 124.068L1189.23 123.67L1188.32 124.068ZM1188.1 75.717L1187.19 75.3189L1187.18 75.3262L1187.18 75.3336L1188.1 75.717ZM1201.31 56.121L1200.61 55.4049L1200.6 55.4139L1201.31 56.121ZM1221.12 43.128L1221.5 44.0516L1221.51 44.048L1221.12 43.128ZM1282.46 49.305L1283.04 48.4905L1282.46 49.305ZM1305.04 80.403V81.403H1306.45L1305.99 80.0718L1305.04 80.403ZM1273.09 80.403L1272.21 80.8687L1272.49 81.403H1273.09V80.403ZM1231.98 66.984L1232.36 67.908L1232.38 67.9025L1232.39 67.8965L1231.98 66.984ZM1221.33 74.226L1220.61 73.5355L1221.33 74.226ZM1214.3 85.515L1213.37 85.154L1213.37 85.1623L1213.36 85.1707L1214.3 85.515ZM1214.52 114.057L1215.45 113.696L1214.52 114.057ZM1221.76 125.559L1221.04 126.25L1221.04 126.258L1221.05 126.266L1221.76 125.559ZM1232.62 133.014L1232.21 133.927L1232.22 133.932L1232.62 133.014ZM1261.38 132.162L1261.88 133.025L1261.89 133.019L1261.38 132.162ZM1273.09 120.234V119.234H1272.55L1272.26 119.684L1273.09 120.234ZM1304.1 119.885C1299.19 133.071 1291.71 143.192 1281.67 150.303L1282.83 151.935C1293.24 144.562 1300.95 134.093 1305.98 120.583L1304.1 119.885ZM1281.67 150.301C1271.78 157.269 1260.06 160.769 1246.47 160.769V162.769C1260.42 162.769 1272.56 159.169 1282.83 151.937L1281.67 150.301ZM1246.47 160.769C1237.93 160.769 1229.89 159.23 1222.35 156.157L1221.59 158.009C1229.39 161.184 1237.68 162.769 1246.47 162.769V160.769ZM1222.36 156.163C1214.8 152.942 1208.16 148.605 1202.43 143.152L1201.05 144.602C1206.96 150.225 1213.81 154.692 1221.58 158.003L1222.36 156.163ZM1202.44 143.17C1196.85 137.581 1192.45 131.083 1189.23 123.67L1187.4 124.466C1190.72 132.105 1195.26 138.813 1201.03 144.584L1202.44 143.17ZM1189.23 123.67C1186.03 116.274 1184.42 108.387 1184.42 99.999H1182.42C1182.42 108.651 1184.08 116.81 1187.4 124.466L1189.23 123.67ZM1184.42 99.999C1184.42 91.4602 1185.96 83.4973 1189.03 76.1004L1187.18 75.3336C1184 82.9887 1182.42 91.2138 1182.42 99.999H1184.42ZM1189.02 76.1151C1192.24 68.6988 1196.57 62.273 1202.02 56.8281L1200.6 55.4139C1194.97 61.045 1190.5 67.6832 1187.19 75.3189L1189.02 76.1151ZM1202.01 56.837C1207.6 51.3899 1214.09 47.1283 1221.5 44.0516L1220.74 42.2044C1213.1 45.3757 1206.39 49.776 1200.61 55.405L1202.01 56.837ZM1221.51 44.048C1229.05 40.8369 1237.08 39.229 1245.61 39.229V37.229C1236.82 37.229 1228.52 38.8871 1220.73 42.208L1221.51 44.048ZM1245.61 39.229C1259.63 39.229 1271.71 42.87 1281.88 50.1195L1283.04 48.4905C1272.49 40.972 1260 37.229 1245.61 37.229V39.229ZM1281.88 50.1195C1292.06 57.3705 1299.47 67.5583 1304.1 80.7342L1305.99 80.0718C1301.24 66.5517 1293.6 56.0075 1283.04 48.4905L1281.88 50.1195ZM1305.04 79.403H1273.09V81.403H1305.04V79.403ZM1273.98 79.9372C1271.06 74.4015 1267.23 70.206 1262.47 67.4004C1257.71 64.596 1252.08 63.215 1245.61 63.215V65.215C1251.79 65.215 1257.06 66.532 1261.45 69.1236C1265.85 71.714 1269.44 75.6125 1272.21 80.8687L1273.98 79.9372ZM1245.61 63.215C1240.52 63.215 1235.83 64.1622 1231.57 66.0715L1232.39 67.8965C1236.37 66.1138 1240.77 65.215 1245.61 65.215V63.215ZM1231.6 66.06C1227.36 67.8155 1223.69 70.3075 1220.61 73.5355L1222.06 74.9165C1224.94 71.8965 1228.37 69.5605 1232.36 67.908L1231.6 66.06ZM1220.61 73.5355C1217.53 76.763 1215.12 80.641 1213.37 85.154L1215.24 85.876C1216.9 81.585 1219.17 77.937 1222.06 74.9165L1220.61 73.5355ZM1213.36 85.1707C1211.76 89.5569 1210.96 94.4328 1210.96 99.786H1212.96C1212.96 94.6312 1213.73 89.9931 1215.24 85.8592L1213.36 85.1707ZM1210.96 99.786C1210.96 105.011 1211.83 109.892 1213.58 114.418L1215.45 113.696C1213.79 109.418 1212.96 104.785 1212.96 99.786H1210.96ZM1213.58 114.418C1215.33 118.937 1217.82 122.885 1221.04 126.25L1222.48 124.868C1219.45 121.701 1217.11 117.981 1215.45 113.696L1213.58 114.418ZM1221.05 126.266C1224.26 129.478 1227.99 132.032 1232.21 133.927L1233.03 132.101C1229.02 130.304 1225.5 127.888 1222.47 124.852L1221.05 126.266ZM1232.22 133.932C1236.61 135.834 1241.29 136.783 1246.25 136.783V134.783C1241.56 134.783 1237.15 133.886 1233.02 132.096L1232.22 133.932ZM1246.25 136.783C1252.35 136.783 1257.58 135.548 1261.88 133.025L1260.87 131.299C1256.94 133.604 1252.08 134.783 1246.25 134.783V136.783ZM1261.89 133.019C1266.31 130.367 1270.32 126.269 1273.93 120.784L1272.26 119.684C1268.76 124.991 1264.96 128.845 1260.86 131.305L1261.89 133.019ZM1273.09 121.234H1305.04V119.234H1273.09V121.234ZM1346.15 66.771H1347.15V65.771H1346.15V66.771ZM1318.67 66.771H1317.67V67.771H1318.67V66.771ZM1318.67 40.998V39.998H1317.67V40.998H1318.67ZM1401.96 40.998H1402.96V39.998H1401.96V40.998ZM1401.96 66.771V67.771H1402.96V66.771H1401.96ZM1374.48 66.771V65.771H1373.48V66.771H1374.48ZM1374.48 159V160H1375.48V159H1374.48ZM1346.15 159H1345.15V160H1346.15V159ZM1346.15 65.771H1318.67V67.771H1346.15V65.771ZM1319.67 66.771V40.998H1317.67V66.771H1319.67ZM1318.67 41.998H1401.96V39.998H1318.67V41.998ZM1400.96 40.998V66.771H1402.96V40.998H1400.96ZM1401.96 65.771H1374.48V67.771H1401.96V65.771ZM1373.48 66.771V159H1375.48V66.771H1373.48ZM1374.48 158H1346.15V160H1374.48V158ZM1347.15 159V66.771H1345.15V159H1347.15ZM1421.5 40.998V39.998H1420.5V40.998H1421.5ZM1502.87 50.583L1502.23 51.357L1502.87 50.583ZM1510.75 89.349L1509.92 88.7943L1510.75 89.349ZM1500.74 97.656L1500.35 96.732L1497.99 97.71L1500.39 98.5943L1500.74 97.656ZM1513.52 107.028L1512.71 107.619L1512.72 107.635L1512.73 107.649L1513.52 107.028ZM1515.22 136.209L1514.31 135.795L1514.31 135.802L1514.3 135.808L1515.22 136.209ZM1506.7 148.137L1506.02 147.402L1506.02 147.409L1506.01 147.416L1506.7 148.137ZM1493.71 156.231L1494.06 157.168L1494.06 157.166L1494.07 157.163L1493.71 156.231ZM1421.5 159H1420.5V160H1421.5V159ZM1482.84 85.089L1482.34 84.2281L1482.33 84.2333L1482.32 84.2387L1482.84 85.089ZM1482.84 69.54L1482.32 70.3903L1482.33 70.3957L1482.34 70.4009L1482.84 69.54ZM1449.83 66.771V65.771H1448.83V66.771H1449.83ZM1449.83 87.858H1448.83V88.858H1449.83V87.858ZM1485.83 129.819L1485.18 129.054L1485.17 129.063L1485.16 129.072L1485.83 129.819ZM1485.83 111.927L1485.16 112.674L1485.17 112.683L1485.18 112.692L1485.83 111.927ZM1449.83 108.519V107.519H1448.83V108.519H1449.83ZM1449.83 133.227H1448.83V134.227H1449.83V133.227ZM1421.5 41.998H1470.07V39.998H1421.5V41.998ZM1470.07 41.998C1483.98 41.998 1494.66 45.1613 1502.23 51.357L1503.5 49.809C1495.45 43.2247 1484.26 39.998 1470.07 39.998V41.998ZM1502.23 51.357C1509.78 57.5316 1513.58 66.1054 1513.58 77.208H1515.58C1515.58 65.5906 1511.57 56.4144 1503.5 49.809L1502.23 51.357ZM1513.58 77.208C1513.58 81.2543 1512.37 85.1105 1509.92 88.7943L1511.58 89.9037C1514.24 85.9195 1515.58 81.6816 1515.58 77.208H1513.58ZM1509.92 88.7943C1507.47 92.4693 1504.28 95.1065 1500.35 96.732L1501.12 98.58C1505.43 96.7975 1508.92 93.8967 1511.58 89.9037L1509.92 88.7943ZM1500.39 98.5943C1505.62 100.521 1509.71 103.532 1512.71 107.619L1514.32 106.437C1511.07 102.004 1506.65 98.7673 1501.08 96.7177L1500.39 98.5943ZM1512.73 107.649C1515.86 111.596 1517.42 115.993 1517.42 120.873H1519.42C1519.42 115.529 1517.7 110.696 1514.3 106.407L1512.73 107.649ZM1517.42 120.873C1517.42 126.279 1516.38 131.249 1514.31 135.795L1516.13 136.623C1518.32 131.797 1519.42 126.543 1519.42 120.873H1517.42ZM1514.3 135.808C1512.37 140.224 1509.61 144.087 1506.02 147.402L1507.38 148.872C1511.17 145.371 1514.09 141.282 1516.14 136.61L1514.3 135.808ZM1506.01 147.416C1502.56 150.722 1498.35 153.353 1493.35 155.299L1494.07 157.163C1499.29 155.133 1503.74 152.368 1507.39 148.858L1506.01 147.416ZM1493.36 155.294C1488.51 157.094 1483.23 158 1477.52 158V160C1483.45 160 1488.96 159.06 1494.06 157.168L1493.36 155.294ZM1477.52 158H1421.5V160H1477.52V158ZM1422.5 159V40.998H1420.5V159H1422.5ZM1469.85 88.858C1475.61 88.858 1480.16 87.9263 1483.37 85.9393L1482.32 84.2387C1479.56 85.9437 1475.45 86.858 1469.85 86.858V88.858ZM1483.35 85.9499C1486.76 83.9382 1488.53 80.9967 1488.53 77.208H1486.53C1486.53 80.2353 1485.18 82.5478 1482.34 84.2281L1483.35 85.9499ZM1488.53 77.208C1488.53 73.5435 1486.74 70.6809 1483.35 68.6791L1482.34 70.4009C1485.2 72.0911 1486.53 74.3405 1486.53 77.208H1488.53ZM1483.37 68.6897C1480.16 66.7027 1475.61 65.771 1469.85 65.771V67.771C1475.45 67.771 1479.56 68.6853 1482.32 70.3903L1483.37 68.6897ZM1469.85 65.771H1449.83V67.771H1469.85V65.771ZM1448.83 66.771V87.858H1450.83V66.771H1448.83ZM1449.83 88.858H1469.85V86.858H1449.83V88.858ZM1475.6 134.227C1480.05 134.227 1483.71 133.038 1486.49 130.566L1485.16 129.072C1482.83 131.144 1479.68 132.227 1475.6 132.227V134.227ZM1486.47 130.584C1489.41 128.112 1490.87 124.844 1490.87 120.873H1488.87C1488.87 124.286 1487.64 126.982 1485.18 129.054L1486.47 130.584ZM1490.87 120.873C1490.87 116.902 1489.41 113.634 1486.47 111.162L1485.18 112.692C1487.64 114.764 1488.87 117.46 1488.87 120.873H1490.87ZM1486.49 111.18C1483.71 108.708 1480.05 107.519 1475.6 107.519V109.519C1479.68 109.519 1482.83 110.602 1485.16 112.674L1486.49 111.18ZM1475.6 107.519H1449.83V109.519H1475.6V107.519ZM1448.83 108.519V133.227H1450.83V108.519H1448.83ZM1449.83 134.227H1475.6V132.227H1449.83V134.227ZM1539.93 75.717L1540.86 76.0854L1540.86 76.0794L1539.93 75.717ZM1552.29 55.908L1551.57 55.2101L1551.56 55.2197L1552.29 55.908ZM1617.46 42.702L1617.03 43.6006L1617.03 43.6047L1617.04 43.6087L1617.46 42.702ZM1634.08 56.76L1633.28 57.3655L1635.08 59.7257V56.76H1634.08ZM1634.08 40.998V39.998H1633.08V40.998H1634.08ZM1660.06 40.998H1661.06V39.998H1660.06V40.998ZM1660.06 159V160H1661.06V159H1660.06ZM1634.08 159H1633.08V160H1634.08V159ZM1634.08 143.664H1635.08V140.99L1633.32 143.008L1634.08 143.664ZM1616.4 157.722L1616.81 158.633L1616.82 158.629L1616.4 157.722ZM1571.03 157.296L1570.63 158.214L1570.64 158.218L1570.65 158.221L1571.03 157.296ZM1552.29 144.516L1551.56 145.204L1551.57 145.214L1552.29 144.516ZM1539.93 125.133L1539 125.501L1539.01 125.507L1539.93 125.133ZM1566.56 115.122L1567.49 114.751L1566.56 115.122ZM1573.59 126.198L1572.86 126.888L1572.88 126.905L1572.9 126.921L1573.59 126.198ZM1584.66 133.227L1584.29 134.156L1584.3 134.16L1584.66 133.227ZM1612.78 133.227L1612.41 132.298L1612.4 132.303L1612.78 133.227ZM1623.64 125.985L1622.93 125.278L1622.93 125.286L1622.92 125.295L1623.64 125.985ZM1630.67 114.909L1629.74 114.548L1629.73 114.556L1629.73 114.565L1630.67 114.909ZM1630.67 85.728L1629.74 86.089L1630.67 85.728ZM1623.43 74.439L1622.71 75.1302L1622.71 75.1382L1622.72 75.1461L1623.43 74.439ZM1612.14 66.984L1611.74 67.9016L1611.76 67.9094L1611.78 67.9166L1612.14 66.984ZM1584.24 66.984L1583.84 66.0664L1583.83 66.0715L1584.24 66.984ZM1573.59 74.652L1574.32 75.3263L1573.59 74.652ZM1566.56 86.367L1567.49 86.728L1567.49 86.7181L1566.56 86.367ZM1536.46 100.425C1536.46 91.5919 1537.93 83.4824 1540.86 76.0854L1539 75.3486C1535.97 83.0036 1534.46 91.3661 1534.46 100.425H1536.46ZM1540.86 76.0794C1543.8 68.5229 1547.85 62.033 1553.01 56.5963L1551.56 55.2197C1546.21 60.859 1542.03 67.5751 1539 75.3545L1540.86 76.0794ZM1553 56.6059C1558.3 51.1668 1564.58 46.91 1571.85 43.836L1571.07 41.994C1563.56 45.168 1557.06 49.5732 1551.57 55.2101L1553 56.6059ZM1571.85 43.836C1579.1 40.7682 1586.99 39.229 1595.53 39.229V37.229C1586.74 37.229 1578.58 38.8138 1571.07 41.994L1571.85 43.836ZM1595.53 39.229C1603.93 39.229 1611.09 40.7001 1617.03 43.6006L1617.9 41.8034C1611.63 38.7399 1604.16 37.229 1595.53 37.229V39.229ZM1617.04 43.6087C1622.97 46.3668 1628.39 50.9348 1633.28 57.3655L1634.87 56.1545C1629.83 49.5211 1624.17 44.7172 1617.89 41.7953L1617.04 43.6087ZM1635.08 56.76V40.998H1633.08V56.76H1635.08ZM1634.08 41.998H1660.06V39.998H1634.08V41.998ZM1659.06 40.998V159H1661.06V40.998H1659.06ZM1660.06 158H1634.08V160H1660.06V158ZM1635.08 159V143.664H1633.08V159H1635.08ZM1633.32 143.008C1627.71 149.463 1621.93 154.049 1615.98 156.815L1616.82 158.629C1623.09 155.715 1629.09 150.929 1634.83 144.32L1633.32 143.008ZM1615.99 156.811C1610.18 159.436 1603.16 160.769 1594.89 160.769V162.769C1603.37 162.769 1610.69 161.404 1616.81 158.633L1615.99 156.811ZM1594.89 160.769C1586.34 160.769 1578.52 159.299 1571.41 156.371L1570.65 158.221C1578.02 161.257 1586.11 162.769 1594.89 162.769V160.769ZM1571.43 156.378C1564.3 153.303 1558.16 149.116 1553 143.818L1551.57 145.214C1556.92 150.708 1563.28 155.041 1570.63 158.214L1571.43 156.378ZM1553.01 143.828C1547.85 138.385 1543.8 132.031 1540.86 124.759L1539.01 125.507C1542.03 133.003 1546.22 139.571 1551.56 145.204L1553.01 143.828ZM1540.86 124.765C1537.93 117.368 1536.46 109.258 1536.46 100.425H1534.46C1534.46 109.484 1535.97 117.846 1539 125.501L1540.86 124.765ZM1563 101.064C1563 106.289 1563.87 111.103 1565.63 115.493L1567.49 114.751C1565.83 110.621 1565 106.063 1565 101.064H1563ZM1565.63 115.493C1567.38 119.864 1569.79 123.667 1572.86 126.888L1574.31 125.508C1571.42 122.481 1569.15 118.9 1567.49 114.751L1565.63 115.493ZM1572.9 126.921C1576.12 129.997 1579.92 132.407 1584.29 134.155L1585.03 132.299C1580.88 130.639 1577.3 128.363 1574.28 125.475L1572.9 126.921ZM1584.3 134.16C1588.83 135.912 1593.71 136.783 1598.93 136.783V134.783C1593.93 134.783 1589.3 133.95 1585.02 132.294L1584.3 134.16ZM1598.93 136.783C1604.16 136.783 1608.91 135.912 1613.16 134.151L1612.4 132.303C1608.42 133.95 1603.93 134.783 1598.93 134.783V136.783ZM1613.15 134.155C1617.53 132.402 1621.28 129.91 1624.36 126.675L1622.92 125.295C1620.04 128.309 1616.54 130.644 1612.41 132.299L1613.15 134.155ZM1624.35 126.692C1627.58 123.463 1630 119.646 1631.61 115.253L1629.73 114.565C1628.22 118.692 1625.95 122.259 1622.93 125.278L1624.35 126.692ZM1631.6 115.27C1633.36 110.741 1634.23 105.789 1634.23 100.425H1632.23C1632.23 105.569 1631.39 110.273 1629.74 114.548L1631.6 115.27ZM1634.23 100.425C1634.23 94.923 1633.36 89.8994 1631.6 85.367L1629.74 86.089C1631.39 90.3606 1632.23 95.135 1632.23 100.425H1634.23ZM1631.6 85.367C1629.85 80.8442 1627.36 76.9609 1624.14 73.7319L1622.72 75.1461C1625.74 78.1651 1628.08 81.8078 1629.74 86.089L1631.6 85.367ZM1624.15 73.7478C1620.92 70.371 1617.03 67.806 1612.5 66.0514L1611.78 67.9166C1616.05 69.57 1619.69 71.9749 1622.71 75.1302L1624.15 73.7478ZM1612.54 66.0664C1608.14 64.1608 1603.32 63.215 1598.08 63.215V65.215C1603.07 65.215 1607.62 66.1152 1611.74 67.9016L1612.54 66.0664ZM1598.08 63.215C1592.98 63.215 1588.23 64.1623 1583.84 66.0664L1584.63 67.9016C1588.76 66.1137 1593.24 65.215 1598.08 65.215V63.215ZM1583.83 66.0715C1579.59 67.9723 1575.92 70.6085 1572.85 73.9777L1574.32 75.3263C1577.21 72.1635 1580.65 69.6877 1584.65 67.8965L1583.83 66.0715ZM1572.85 73.9777C1569.77 77.3466 1567.37 81.3642 1565.62 86.0159L1567.49 86.7181C1569.16 82.2818 1571.44 78.4894 1574.32 75.3263L1572.85 73.9777ZM1565.62 86.006C1563.87 90.5384 1563 95.562 1563 101.064H1565C1565 95.774 1565.84 90.9996 1567.49 86.728L1565.62 86.006Z" fill="white" mask="url(#path-1-outside-1_296_2716)"/>
</g>
</svg>
