<svg xmlns="http://www.w3.org/2000/svg" width="48" height="48" fill="none"><path fill="#5A73EF" d="M11.364 14.469h2.812v2.811h-2.812V14.47ZM11.364 25.716h2.812v2.811h-2.812v-2.811Z"/><path fill="#5A73EF" d="M36.226 27.483c1.037 0 2.044.136 3.002.392V4.218c0-.776-.63-1.406-1.406-1.406H33.6a6.645 6.645 0 0 1-6.638 6.637H15.194c-1.83 0-3.489-.744-4.69-1.946a6.614 6.614 0 0 1-1.947-4.691H4.335c-.776 0-1.406.63-1.406 1.406V39.55h21.648c-.266-6.482 4.996-12.068 11.649-12.068Zm-6.994-15.825h2.03a1.406 1.406 0 0 1 0 2.811h-2.03a1.406 1.406 0 0 1 0-2.811Zm-8.027 0h2.966a1.406 1.406 0 0 1 0 2.811h-2.966a1.406 1.406 0 0 1 0-2.811Zm0 5.623H31.26a1.406 1.406 0 0 1 0 2.812H21.205a1.406 1.406 0 1 1 0-2.812Zm-4.218 12.652c0 .777-.63 1.406-1.406 1.406H9.958a1.406 1.406 0 0 1-1.406-1.406V24.31c0-.776.63-1.406 1.406-1.406h5.623c.776 0 1.406.63 1.406 1.406v5.623Zm0-11.246c0 .777-.63 1.406-1.406 1.406H9.958a1.406 1.406 0 0 1-1.406-1.406v-5.624c0-.776.63-1.405 1.406-1.405h5.623c.776 0 1.406.63 1.406 1.405v5.624Zm2.812 5.775c0-.776.63-1.406 1.406-1.406H31.26a1.406 1.406 0 0 1 0 2.812H21.205c-.776 0-1.406-.63-1.406-1.406Z"/><path fill="#5A73EF" d="M15.194 6.637h11.768a3.83 3.83 0 0 0 3.826-3.825V1.406C30.788.63 30.159 0 29.382 0H12.774c-.776 0-1.405.63-1.405 1.406v1.406a3.83 3.83 0 0 0 3.825 3.825ZM36.226 30.295c-4.878 0-8.846 3.968-8.846 8.846a8.845 8.845 0 0 0 8.846 8.845c4.978 0 8.845-4.074 8.845-8.845 0-4.773-3.868-8.846-8.845-8.846Zm4.516 7.668L36.4 42.306c-.55.55-1.44.548-1.988 0l-2.7-2.702a1.405 1.405 0 1 1 1.987-1.987l1.708 1.707 3.347-3.349a1.406 1.406 0 0 1 1.99 1.988ZM28.65 48c-4.42-.001-11.83-.014-24.315-.014-.776 0-1.406-.63-1.406-1.406v-4.218h22.088A11.628 11.628 0 0 0 28.65 48Z"/></svg>