<svg xmlns="http://www.w3.org/2000/svg" width="48" height="48" fill="none"><g fill="#5A73EF" clip-path="url(#a)"><path d="M11.523 36.683h-9.68c-.777 0-1.407.63-1.407 1.406v8.505c0 .776.63 1.406 1.407 1.406h11.086V38.09c0-.777-.63-1.406-1.406-1.406ZM25.422 28.808h-8.274c-.777 0-1.406.63-1.406 1.406V48h11.086V30.214c0-.777-.63-1.406-1.406-1.406ZM44.794 7.595l2.834-3.076a1.405 1.405 0 0 0-1.034-2.359h-9.066v-.754a1.406 1.406 0 1 0-2.812 0v16.407h-3.669c-.776 0-1.406.63-1.406 1.406V48h11.326c.777 0 1.406-.63 1.406-1.406V19.219c0-.777-.629-1.407-1.406-1.407h-3.439v-5.031h9.066a1.406 1.406 0 0 0 .992-2.402l-2.792-2.784ZM23.864 12.073a1.406 1.406 0 1 0 2.52-1.25c-2.55-5.14-2.292-4.622-2.329-4.692-.264-.5-.808-.8-1.387-.74l-.012.001c-.115.013.192-.047-5.134 1.074a1.406 1.406 0 0 0 .288 2.782c.196 0 .07.017 2.543-.504a38.756 38.756 0 0 1-7.159 9.833A38.687 38.687 0 0 1 .86 26.901a1.406 1.406 0 0 0 1.095 2.59 41.484 41.484 0 0 0 13.229-8.925 41.553 41.553 0 0 0 7.67-10.532l1.011 2.04Z"/></g><defs><clipPath id="a"><path fill="#fff" d="M0 0h48v48H0z"/></clipPath></defs></svg>