<svg xmlns="http://www.w3.org/2000/svg" width="48" height="48" fill="none"><g fill="#5A73EF" clip-path="url(#a)"><path d="M32.977 47.415c.695.428 1.57.437 2.27.018a37.058 37.058 0 0 0 5.867-4.351c2.033-1.859 3.645-3.809 4.789-5.796 7.344-12.95-6.66-18.225-10.503-9.712-.165.422-.505.758-.942.877a1.41 1.41 0 0 1-1.693-.847 6.561 6.561 0 0 0-6.098-4.16c-3.796-.06-6.552 3.447-6.478 7.164.041 8.079 8.934 14.432 12.788 16.807ZM19.976 39.044c-1.08-1.748-1.827-3.521-2.234-5.3-.922 0-3.28-.116-5.649-2.42-.544-.542-.59-1.43-.064-1.99a1.407 1.407 0 0 1 2.025-.03c1.345 1.354 2.765 1.587 3.328 1.624-.003-.147-.01-.294-.006-.442.007-1.128.19-2.236.532-3.278V15.162h-1.105a3.54 3.54 0 0 0-3.536 3.498c-.008.744-.562 1.389-1.304 1.442a1.407 1.407 0 0 1-1.51-1.404c0-1.313.4-2.535 1.086-3.549.026-.041.053-.082.083-.122 1.33-1.763.915-3.905-.256-4.981-1.367-1.32.366-3.321 1.838-2.132 1.338 1.192 2.03 2.886 2.048 4.627a6.342 6.342 0 0 1 1.55-.193h1.107V2.02c0-.743-.511-1.386-1.234-1.563-2.379-.619-4.975.69-5.933 2.84a.573.573 0 0 1-.597.323C6.727 3.132 3.582 5.868 3.61 9.327a.582.582 0 0 1-.335.554c-4.141 1.919-4.42 7.87-.465 10.163a.573.573 0 0 1-.026.995c-3.735 1.97-3.584 7.51.254 9.272a.573.573 0 0 1 .324.597c-.489 3.417 2.249 6.565 5.707 6.536a.573.573 0 0 1 .542.354c.835 1.971 2.817 3.271 5.168 3.271l.048.003c2.31 0 4.03-1.03 5.164-2.005l-.015-.023Z"/><path d="M20.723 16.054c1.694-.862 2.594-2.588 2.505-4.133a1.407 1.407 0 0 1 2.809-.162c.108 1.876-.554 3.697-1.866 5.126a7.826 7.826 0 0 1-3.449 2.18v3.807a8.93 8.93 0 0 1 5.942-2.241 9.304 9.304 0 0 1 5.354 1.671 9.36 9.36 0 0 1 2.06 1.958 9.356 9.356 0 0 1 1.915-1.854 7.716 7.716 0 0 0-.963-1.238.57.57 0 0 1 .17-.922c1.782-.787 3.054-2.44 3.054-4.52a5.19 5.19 0 0 0-2.987-4.7.573.573 0 0 1-.324-.597c.49-3.428-2.266-6.58-5.733-6.536a.58.58 0 0 1-.528-.334c-1.097-2.456-4.156-3.901-6.83-3.06-.674.198-1.13.83-1.13 1.534v14.02Z"/></g><defs><clipPath id="a"><path fill="#fff" d="M0 0h48v48H0z"/></clipPath></defs></svg>