<svg xmlns="http://www.w3.org/2000/svg" width="48" height="48" fill="none"><path fill="#5A73EF" d="M42.844 11.344H40.5v32.812h2.344A5.162 5.162 0 0 0 48 39V16.5a5.162 5.162 0 0 0-5.156-5.156ZM0 16.5V39a5.162 5.162 0 0 0 5.156 5.156H7.5V11.344H5.156A5.162 5.162 0 0 0 0 16.5ZM32.906 8.063a4.224 4.224 0 0 0-4.218-4.22h-9.375a4.224 4.224 0 0 0-4.22 4.22v3.28h-4.78v32.813h27.374V11.344h-4.78V8.063Zm-5.926 22.78-6.496 3.75a1.406 1.406 0 0 1-1.92-.515l-5.157-8.93a1.406 1.406 0 0 1-.075-1.256l1.504-3.523c-.612-.837-1.433-2.293-1.418-4.069v-.021c.03-1.241.418-2.375 1.186-3.466.359-.51.799-1 1.317-1.47h1.985v-3.28c0-.776.631-1.407 1.407-1.407h9.375c.775 0 1.406.631 1.406 1.407v3.28h-8.975c-2.259 1.051-4.827 2.737-4.888 4.993-.006 1.07.58 1.995.943 2.466l4.114.496c.44.053.829.31 1.05.693l5.156 8.93a1.406 1.406 0 0 1-.514 1.922Zm7.801-9.655a4.223 4.223 0 0 1-4.218 4.218 4.223 4.223 0 0 1-4.22-4.218 4.223 4.223 0 0 1 4.22-4.22 4.223 4.223 0 0 1 4.218 4.22Z"/><path fill="#5A73EF" d="m17.345 21.656-1.15 2.694 4.1 7.104 4.06-2.344-4.101-7.104-2.909-.35ZM30.563 22.594a1.406 1.406 0 1 0 0-2.813 1.406 1.406 0 0 0 0 2.813Z"/></svg>