<svg xmlns="http://www.w3.org/2000/svg">

    <symbol id='check-list' xmlns="http://www.w3.org/2000/svg" fill="none">
        <path fill="#5A73EF" d="M11.364 14.469h2.812v2.811h-2.812V14.47ZM11.364 25.716h2.812v2.811h-2.812v-2.811Z"/>
        <path fill="#5A73EF" d="M36.226 27.483c1.037 0 2.044.136 3.002.392V4.218c0-.776-.63-1.406-1.406-1.406H33.6a6.645 6.645 0 0 1-6.638 6.637H15.194c-1.83 0-3.489-.744-4.69-1.946a6.614 6.614 0 0 1-1.947-4.691H4.335c-.776 0-1.406.63-1.406 1.406V39.55h21.648c-.266-6.482 4.996-12.068 11.649-12.068Zm-6.994-15.825h2.03a1.406 1.406 0 0 1 0 2.811h-2.03a1.406 1.406 0 0 1 0-2.811Zm-8.027 0h2.966a1.406 1.406 0 0 1 0 2.811h-2.966a1.406 1.406 0 0 1 0-2.811Zm0 5.623H31.26a1.406 1.406 0 0 1 0 2.812H21.205a1.406 1.406 0 1 1 0-2.812Zm-4.218 12.652c0 .777-.63 1.406-1.406 1.406H9.958a1.406 1.406 0 0 1-1.406-1.406V24.31c0-.776.63-1.406 1.406-1.406h5.623c.776 0 1.406.63 1.406 1.406v5.623Zm0-11.246c0 .777-.63 1.406-1.406 1.406H9.958a1.406 1.406 0 0 1-1.406-1.406v-5.624c0-.776.63-1.405 1.406-1.405h5.623c.776 0 1.406.63 1.406 1.405v5.624Zm2.812 5.775c0-.776.63-1.406 1.406-1.406H31.26a1.406 1.406 0 0 1 0 2.812H21.205c-.776 0-1.406-.63-1.406-1.406Z"/>
        <path fill="#5A73EF" d="M15.194 6.637h11.768a3.83 3.83 0 0 0 3.826-3.825V1.406C30.788.63 30.159 0 29.382 0H12.774c-.776 0-1.405.63-1.405 1.406v1.406a3.83 3.83 0 0 0 3.825 3.825ZM36.226 30.295c-4.878 0-8.846 3.968-8.846 8.846a8.845 8.845 0 0 0 8.846 8.845c4.978 0 8.845-4.074 8.845-8.845 0-4.773-3.868-8.846-8.845-8.846Zm4.516 7.668L36.4 42.306c-.55.55-1.44.548-1.988 0l-2.7-2.702a1.405 1.405 0 1 1 1.987-1.987l1.708 1.707 3.347-3.349a1.406 1.406 0 0 1 1.99 1.988ZM28.65 48c-4.42-.001-11.83-.014-24.315-.014-.776 0-1.406-.63-1.406-1.406v-4.218h22.088A11.628 11.628 0 0 0 28.65 48Z"/>
    </symbol>

    <symbol id='goal' xmlns="http://www.w3.org/2000/svg" fill="none">
        <g fill="#5A73EF" clip-path="url(#a)">
        <path d="M11.523 36.683h-9.68c-.777 0-1.407.63-1.407 1.406v8.505c0 .776.63 1.406 1.407 1.406h11.086V38.09c0-.777-.63-1.406-1.406-1.406ZM25.422 28.808h-8.274c-.777 0-1.406.63-1.406 1.406V48h11.086V30.214c0-.777-.63-1.406-1.406-1.406ZM44.794 7.595l2.834-3.076a1.405 1.405 0 0 0-1.034-2.359h-9.066v-.754a1.406 1.406 0 1 0-2.812 0v16.407h-3.669c-.776 0-1.406.63-1.406 1.406V48h11.326c.777 0 1.406-.63 1.406-1.406V19.219c0-.777-.629-1.407-1.406-1.407h-3.439v-5.031h9.066a1.406 1.406 0 0 0 .992-2.402l-2.792-2.784ZM23.864 12.073a1.406 1.406 0 1 0 2.52-1.25c-2.55-5.14-2.292-4.622-2.329-4.692-.264-.5-.808-.8-1.387-.74l-.012.001c-.115.013.192-.047-5.134 1.074a1.406 1.406 0 0 0 .288 2.782c.196 0 .07.017 2.543-.504a38.756 38.756 0 0 1-7.159 9.833A38.687 38.687 0 0 1 .86 26.901a1.406 1.406 0 0 0 1.095 2.59 41.484 41.484 0 0 0 13.229-8.925 41.553 41.553 0 0 0 7.67-10.532l1.011 2.04Z"/>
        </g>
        <defs>
        <clipPath id="a">
        <path fill="#fff" d="M0 0h48v48H0z"/>
        </clipPath>
        </defs>
    </symbol>

    <symbol id='main-logo' xmlns="http://www.w3.org/2000/svg" fill="none">
        <g filter="url(#a)">
        <circle cx="21" cy="21.5" r="21" fill="url(#b)"/>
        </g>
        <defs>
        <radialGradient id="b" cx="0" cy="0" r="1" gradientTransform="rotate(66.037 1.308 17.683) scale(40.0308)" gradientUnits="userSpaceOnUse">
        <stop stop-color="#F706A3"/>
        <stop offset="1" stop-color="#5A73EF"/>
        </radialGradient>
        <filter id="a" width="57" height="63" x="-12" y="-16.5" color-interpolation-filters="sRGB" filterUnits="userSpaceOnUse">
        <feFlood flood-opacity="0" result="BackgroundImageFix"/>
        <feBlend in="SourceGraphic" in2="BackgroundImageFix" result="shape"/>
        <feColorMatrix in="SourceAlpha" result="hardAlpha" values="0 0 0 0 0 0 0 0 0 0 0 0 0 0 0 0 0 0 127 0"/>
        <feOffset dx="-12" dy="-17"/>
        <feGaussianBlur stdDeviation="8.55"/>
        <feComposite in2="hardAlpha" k2="-1" k3="1" operator="arithmetic"/>
        <feColorMatrix values="0 0 0 0 0.0509804 0 0 0 0 0.0470588 0 0 0 0 0.0705882 0 0 0 0.3 0"/>
        <feBlend in2="shape" mode="plus-darker" result="effect1_innerShadow_296_2719"/>
        <feColorMatrix in="SourceAlpha" result="hardAlpha" values="0 0 0 0 0 0 0 0 0 0 0 0 0 0 0 0 0 0 127 0"/>
        <feOffset dx="3" dy="4"/>
        <feGaussianBlur stdDeviation="5.15"/>
        <feComposite in2="hardAlpha" k2="-1" k3="1" operator="arithmetic"/>
        <feColorMatrix values="0 0 0 0 1 0 0 0 0 1 0 0 0 0 1 0 0 0 0.25 0"/>
        <feBlend in2="effect1_innerShadow_296_2719" mode="plus-lighter" result="effect2_innerShadow_296_2719"/>
        </filter>
        </defs>
    </symbol>

    <symbol id='mental-health' xmlns="http://www.w3.org/2000/svg" fill="none">
        <g fill="#5A73EF" clip-path="url(#a)">
        <path d="M32.977 47.415c.695.428 1.57.437 2.27.018a37.058 37.058 0 0 0 5.867-4.351c2.033-1.859 3.645-3.809 4.789-5.796 7.344-12.95-6.66-18.225-10.503-9.712-.165.422-.505.758-.942.877a1.41 1.41 0 0 1-1.693-.847 6.561 6.561 0 0 0-6.098-4.16c-3.796-.06-6.552 3.447-6.478 7.164.041 8.079 8.934 14.432 12.788 16.807ZM19.976 39.044c-1.08-1.748-1.827-3.521-2.234-5.3-.922 0-3.28-.116-5.649-2.42-.544-.542-.59-1.43-.064-1.99a1.407 1.407 0 0 1 2.025-.03c1.345 1.354 2.765 1.587 3.328 1.624-.003-.147-.01-.294-.006-.442.007-1.128.19-2.236.532-3.278V15.162h-1.105a3.54 3.54 0 0 0-3.536 3.498c-.008.744-.562 1.389-1.304 1.442a1.407 1.407 0 0 1-1.51-1.404c0-1.313.4-2.535 1.086-3.549.026-.041.053-.082.083-.122 1.33-1.763.915-3.905-.256-4.981-1.367-1.32.366-3.321 1.838-2.132 1.338 1.192 2.03 2.886 2.048 4.627a6.342 6.342 0 0 1 1.55-.193h1.107V2.02c0-.743-.511-1.386-1.234-1.563-2.379-.619-4.975.69-5.933 2.84a.573.573 0 0 1-.597.323C6.727 3.132 3.582 5.868 3.61 9.327a.582.582 0 0 1-.335.554c-4.141 1.919-4.42 7.87-.465 10.163a.573.573 0 0 1-.026.995c-3.735 1.97-3.584 7.51.254 9.272a.573.573 0 0 1 .324.597c-.489 3.417 2.249 6.565 5.707 6.536a.573.573 0 0 1 .542.354c.835 1.971 2.817 3.271 5.168 3.271l.048.003c2.31 0 4.03-1.03 5.164-2.005l-.015-.023Z"/>
        <path d="M20.723 16.054c1.694-.862 2.594-2.588 2.505-4.133a1.407 1.407 0 0 1 2.809-.162c.108 1.876-.554 3.697-1.866 5.126a7.826 7.826 0 0 1-3.449 2.18v3.807a8.93 8.93 0 0 1 5.942-2.241 9.304 9.304 0 0 1 5.354 1.671 9.36 9.36 0 0 1 2.06 1.958 9.356 9.356 0 0 1 1.915-1.854 7.716 7.716 0 0 0-.963-1.238.57.57 0 0 1 .17-.922c1.782-.787 3.054-2.44 3.054-4.52a5.19 5.19 0 0 0-2.987-4.7.573.573 0 0 1-.324-.597c.49-3.428-2.266-6.58-5.733-6.536a.58.58 0 0 1-.528-.334c-1.097-2.456-4.156-3.901-6.83-3.06-.674.198-1.13.83-1.13 1.534v14.02Z"/>
        </g>
        <defs>
        <clipPath id="a">
        <path fill="#fff" d="M0 0h48v48H0z"/>
        </clipPath>
        </defs>
    </symbol>

    <symbol id='suitcase' xmlns="http://www.w3.org/2000/svg" fill="none">
        <path fill="#5A73EF" d="M42.844 11.344H40.5v32.812h2.344A5.162 5.162 0 0 0 48 39V16.5a5.162 5.162 0 0 0-5.156-5.156ZM0 16.5V39a5.162 5.162 0 0 0 5.156 5.156H7.5V11.344H5.156A5.162 5.162 0 0 0 0 16.5ZM32.906 8.063a4.224 4.224 0 0 0-4.218-4.22h-9.375a4.224 4.224 0 0 0-4.22 4.22v3.28h-4.78v32.813h27.374V11.344h-4.78V8.063Zm-5.926 22.78-6.496 3.75a1.406 1.406 0 0 1-1.92-.515l-5.157-8.93a1.406 1.406 0 0 1-.075-1.256l1.504-3.523c-.612-.837-1.433-2.293-1.418-4.069v-.021c.03-1.241.418-2.375 1.186-3.466.359-.51.799-1 1.317-1.47h1.985v-3.28c0-.776.631-1.407 1.407-1.407h9.375c.775 0 1.406.631 1.406 1.407v3.28h-8.975c-2.259 1.051-4.827 2.737-4.888 4.993-.006 1.07.58 1.995.943 2.466l4.114.496c.44.053.829.31 1.05.693l5.156 8.93a1.406 1.406 0 0 1-.514 1.922Zm7.801-9.655a4.223 4.223 0 0 1-4.218 4.218 4.223 4.223 0 0 1-4.22-4.218 4.223 4.223 0 0 1 4.22-4.22 4.223 4.223 0 0 1 4.218 4.22Z"/>
        <path fill="#5A73EF" d="m17.345 21.656-1.15 2.694 4.1 7.104 4.06-2.344-4.101-7.104-2.909-.35ZM30.563 22.594a1.406 1.406 0 1 0 0-2.813 1.406 1.406 0 0 0 0 2.813Z"/>
    </symbol>
</svg>